<?xml version="1.0" encoding="UTF-8"?> <svg xmlns="http://www.w3.org/2000/svg" height="432pt" viewBox="0 0 432 432.0289" width="432pt"> <path d="m184.003906 72.039062c-31.015625-.054687-61.492187 8.117188-88.320312 23.679688-6.640625 3.886719-13.027344 8.1875-19.121094 12.878906-54.011719 41.734375-79.023438 110.933594-64.175781 177.558594 14.847656 66.621094 66.878906 118.648438 133.5 133.496094 66.621093 14.851562 135.824219-10.160156 177.554687-64.171875 23.804688-30.746094 36.671875-68.554688 36.5625-107.441407 0-97.203124-78.800781-176-176-176zm0 0" fill="#9bc9ff"></path> <g fill="#1e81ce"> <path d="m126.632812 362.441406c-12.269531-6.109375-23.460937-14.179687-33.132812-23.890625-7.171875-7.125-13.4375-15.101562-18.664062-23.75-1.445313-2.507812-4.132813-4.039062-7.023438-4.003906-2.890625.03125-5.542969 1.625-6.929688 4.164063-1.386718 2.539062-1.292968 5.625.238282 8.078124 5.898437 9.769532 12.96875 18.777344 21.058594 26.824219 10.898437 10.945313 23.511718 20.035157 37.34375 26.914063 3.957031 1.960937 8.757812.34375 10.722656-3.613282 1.964844-3.960937.347656-8.761718-3.613282-10.722656zm0 0"></path> <path d="m184.003906 320.039062c-17.675781 0-32-14.328124-32-32h-16c.042969 23.398438 16.933594 43.363282 40 47.28125v16.71875h16v-16.71875c24.472656-4.285156 41.632813-26.539062 39.550782-51.296874-2.078126-24.757813-22.707032-43.839844-47.550782-43.984376-17.675781 0-32-14.328124-32-32 0-17.671874 14.324219-32 32-32 17.671875 0 32 14.328126 32 32h16c-.042968-23.394531-16.933594-43.359374-40-47.28125v-16.71875h-16v16.71875c-24.476562 4.285157-41.632812 26.539063-39.554687 51.296876 2.078125 24.761718 22.707031 43.839843 47.554687 43.984374 17.671875 0 32 14.328126 32 32 0 17.671876-14.328125 32-32 32zm0 0"></path> <path d="m345.960938 109.566406c2.804687 3.417969 7.84375 3.917969 11.261718 1.117188 3.417969-2.800782 3.917969-7.84375 1.117188-11.261719-7.59375-9.246094-16.0625-17.742187-25.289063-25.367187-3.417969-2.8125-8.472656-2.324219-11.289062 1.097656-2.8125 3.417968-2.324219 8.472656 1.097656 11.289062 8.425781 6.949219 16.164063 14.691406 23.101563 23.125zm0 0"></path> <path d="m285.828125 146.222656c-30.09375-30.136718-71.992187-45.394531-114.417969-41.667968-42.425781 3.726562-81.023437 26.058593-105.398437 60.980468-24.921875 35.535156-32.402344 80.445313-20.34375 122.136719 1.210937 4.25 5.636719 6.714844 9.886719 5.503906 4.25-1.210937 6.714843-5.636719 5.503906-9.886719-16.058594-56.058593 7.816406-115.882812 58.058594-145.480468 50.242187-29.597656 114.140624-21.484375 155.390624 19.734375 3.039063 3.035156 5.894532 6.175781 8.566407 9.417969 40.414062 48.972656 38.59375 120.234374-4.269531 167.078124-.128907.113282-.242188.242188-.371094.359376l-.144532.144531c-.09375.097656-.199218.183593-.285156.28125-1.089844 1.230469-2.242187 2.472656-3.503906 3.71875-30.195312 30.160156-73.433594 43.289062-115.296875 35.007812-4.335937-.859375-8.546875 1.957031-9.40625 6.292969s1.960937 8.542969 6.292969 9.402344c47.113281 9.335937 95.773437-5.433594 129.753906-39.375 1.253906-1.246094 2.398438-2.496094 3.566406-3.75.207032-.183594.398438-.375.585938-.578125 52.578125-56.695313 50.734375-144.871094-4.167969-199.320313zm0 0"></path> <path d="m432.003906 184.039062c.015625-78.609374-49.910156-148.546874-124.261718-174.070312-74.351563-25.523438-156.703126-.992188-204.972657 61.054688-11.921875 9.25-22.632812 19.964843-31.878906 31.886718-56.132813 43.757813-81.996094 115.960938-66.410156 185.40625 15.582031 69.441406 69.8125 123.671875 139.257812 139.25 69.445313 15.578125 141.648438-10.289062 185.402344-66.421875 11.949219-9.332031 22.699219-20.105469 32-32.082031 44.835937-34.730469 71.011719-88.308594 70.863281-145.023438zm-16 0c.058594 30.835938-8.441406 61.085938-24.554687 87.375 15.566406-49.242187 9.710937-102.757812-16.125-147.46875-1.363281-2.605468-4.042969-4.253906-6.980469-4.292968-2.941406-.039063-5.664062 1.535156-7.09375 4.101562-1.433594 2.566406-1.34375 5.710938.234375 8.191406 30.742187 53.195313 29.957031 118.941407-2.050781 171.390626 20.703125-65.433594 3.234375-136.949219-45.304688-185.472657-48.535156-48.519531-120.058594-65.964843-185.484375-45.238281 26.269531-16.148438 56.519531-24.660156 87.359375-24.585938 29.78125-.023437 59.035156 7.882813 84.75 22.90625 3.789063 1.972657 8.460938.625 10.609375-3.066406 2.152344-3.691406 1.023438-8.421875-2.558593-10.742187-44.949219-26.234375-98.902344-32.214844-148.507813-16.464844 51.871094-31.695313 116.808594-32.910156 169.832031-3.183594 53.019532 29.726563 85.855469 85.765625 85.875 146.550781zm-232 232c-71.933594.019532-135.894531-45.757812-159.078125-113.851562-23.183593-68.089844-.449219-143.386719 56.550781-187.269531 5.804688-4.476563 11.890626-8.578125 18.222657-12.277344 65.90625-38.128906 149.210937-27.199219 203.054687 26.636719 53.84375 53.835937 64.78125 137.136718 26.664063 203.050781-30.164063 51.746094-85.515625 83.609375-145.414063 83.710937zm0 0"></path> </g> </svg> 