<?xml version="1.0" encoding="UTF-8"?> <svg xmlns="http://www.w3.org/2000/svg" height="480pt" viewBox="0 -28 480 480" width="480pt"> <path d="m392 320c-22.089844 0-40 17.910156-40 40-.019531 2.6875.25 5.371094.800781 8 3.785157 18.644531 20.175781 32.039062 39.199219 32.039062s35.414062-13.394531 39.199219-32.039062c.550781-2.628906.820312-5.3125.800781-8 0-22.089844-17.910156-40-40-40zm0 56c-8.835938 0-16-7.164062-16-16s7.164062-16 16-16 16 7.164062 16 16-7.164062 16-16 16zm0 0" fill="#9bc9ff"></path> <path d="m120 320c-22.089844 0-40 17.910156-40 40-.019531 2.6875.25 5.371094.800781 8 3.785157 18.644531 20.175781 32.039062 39.199219 32.039062s35.414062-13.394531 39.199219-32.039062c.550781-2.628906.820312-5.3125.800781-8 0-22.089844-17.910156-40-40-40zm0 56c-8.835938 0-16-7.164062-16-16s7.164062-16 16-16 16 7.164062 16 16-7.164062 16-16 16zm0 0" fill="#9bc9ff"></path> <path d="m392 112h-80v176h144v-80zm-48 32h32l40 56h-72zm0 0" fill="#9bc9ff"></path> <path d="m328 40v-32h-320v32zm0 0" fill="#9bc9ff"></path> <path d="m312 296h-304v64h72c0-22.089844 17.910156-40 40-40s40 17.910156 40 40h192c0-22.089844 17.910156-40 40-40s40 17.910156 40 40h40v-64zm0 0" fill="#9bc9ff"></path> <path d="m136 360c0 8.835938-7.164062 16-16 16s-16-7.164062-16-16 7.164062-16 16-16 16 7.164062 16 16zm0 0" fill="#9bc9ff"></path> <path d="m408 360c0 8.835938-7.164062 16-16 16s-16-7.164062-16-16 7.164062-16 16-16 16 7.164062 16 16zm0 0" fill="#9bc9ff"></path> <g fill="#1e81ce"> <path d="m439.023438 369.695312c.121093-.542968.167968-1.136718.265624-1.695312h32.710938c4.417969 0 8-3.582031 8-8v-64c0-4.417969-3.582031-8-8-8h-8v-72c-.003906-1.578125-.46875-3.125-1.34375-4.441406l-64-96c-1.484375-2.222656-3.980469-3.558594-6.65625-3.558594h-72v-64h8c4.417969 0 8-3.582031 8-8v-32c0-4.417969-3.582031-8-8-8h-320c-4.417969 0-8 3.582031-8 8v32c0 4.417969 3.582031 8 8 8h8v240h-8c-4.417969 0-8 3.582031-8 8v64c0 4.417969 3.582031 8 8 8h64.710938c.089843.519531.136718 1.078125.242187 1.601562 4.519531 22.367188 24.164063 38.457032 46.984375 38.488282 22.820312.027344 42.507812-16.015625 47.085938-38.371094.121093-.542969.167968-1.132812.265624-1.695312h177.421876c.089843.519531.136718 1.082031.242187 1.601562 4.519531 22.367188 24.164063 38.457031 46.984375 38.488281 22.820312.027344 42.507812-16.011719 47.085938-38.371093zm-51.304688-241.695312 60.28125 90.398438v13.601562h-104c-4.417969 0-8 3.582031-8 8s3.582031 8 8 8h104v40h-128v-160zm-371.71875-112h304v16h-304zm16 32h272v240h-272zm-16 256h448v48h-24.664062c0-.183594-.105469-.351562-.144532-.535156-.4375-2.410156-1.054687-4.78125-1.855468-7.097656-.144532-.414063-.304688-.800782-.457032-1.246094-.851562-2.273438-1.871094-4.480469-3.054687-6.601563-.175781-.304687-.367188-.589843-.542969-.894531-1.273438-2.175781-2.714844-4.25-4.3125-6.199219l-.136719-.152343c-1.617187-1.925782-3.386719-3.714844-5.289062-5.363282-.214844-.191406-.40625-.390625-.621094-.566406-1.871094-1.566406-3.859375-2.988281-5.945313-4.253906-.351562-.21875-.695312-.433594-1.054687-.640625-2.09375-1.210938-4.273437-2.257813-6.523437-3.136719l-1.191407-.441406c-2.34375-.847656-4.75-1.515625-7.199219-1.992188-.320312-.0625-.640624-.09375-.960937-.152344-5.324219-.96875-10.785156-.96875-16.109375 0-.320312.058594-.640625.089844-.960938.152344-2.449218.476563-4.855468 1.144532-7.199218 1.992188l-1.191406.441406c-2.25.878906-4.429688 1.925781-6.523438 3.136719-.359375.207031-.703125.421875-1.054688.640625-2.085937 1.265625-4.074218 2.6875-5.945312 4.253906-.214844.175781-.40625.375-.621094.566406-1.902344 1.648438-3.671875 3.4375-5.289062 5.363282l-.136719.152343c-1.597656 1.949219-3.039063 4.027344-4.3125 6.207031-.175781.296876-.367187.582032-.535156.886719-1.191407 2.117188-2.214844 4.324219-3.0625 6.601563-.152344.414062-.3125.800781-.457031 1.246094-.800782 2.316406-1.421876 4.6875-1.855469 7.097656-.039063.183594-.113281.351562-.144531.535156h-177.3125c0-.183594-.105469-.351562-.144532-.535156-.4375-2.410156-1.054687-4.78125-1.855468-7.097656-.144532-.414063-.304688-.800782-.457032-1.246094-.851562-2.273438-1.871094-4.480469-3.054687-6.601563-.175781-.304687-.367188-.589843-.542969-.894531-1.273438-2.175781-2.714844-4.25-4.3125-6.199219l-.136719-.152343c-1.617187-1.925782-3.386719-3.714844-5.289062-5.363282-.214844-.191406-.40625-.390625-.621094-.566406-1.871094-1.566406-3.859375-2.988281-5.945313-4.253906-.351562-.21875-.695312-.433594-1.054687-.640625-2.09375-1.210938-4.273437-2.257813-6.523437-3.136719l-1.191407-.441406c-2.34375-.847656-4.75-1.515625-7.199219-1.992188-.320312-.0625-.640624-.09375-.960937-.152344-5.324219-.96875-10.785156-.96875-16.109375 0-.320312.058594-.640625.089844-.960938.152344-2.449218.476563-4.855468 1.144532-7.199218 1.992188l-1.191406.441406c-2.25.878906-4.429688 1.925781-6.523438 3.136719-.359375.207031-.703125.421875-1.054688.640625-2.085937 1.265625-4.074218 2.6875-5.945312 4.253906-.214844.175781-.40625.375-.621094.566406-1.902344 1.648438-3.671875 3.4375-5.289062 5.363282l-.136719.152343c-1.597656 1.949219-3.039063 4.027344-4.3125 6.207031-.175781.296876-.367187.582032-.535156.886719-1.191407 2.117188-2.214844 4.324219-3.0625 6.601563-.152344.414062-.3125.800781-.457031 1.246094-.800782 2.316406-1.421876 4.6875-1.855469 7.097656-.039063.183594-.113281.351562-.144531.535156h-56.648438zm135.359375 62.398438c-3.03125 14.9375-16.179687 25.664062-31.421875 25.632812-15.238281-.027344-28.34375-10.804688-31.320312-25.75-.425782-2.066406-.632813-4.171875-.617188-6.28125 0-17.671875 14.328125-32 32-32s32 14.328125 32 32c.015625 2.148438-.199219 4.296875-.640625 6.398438zm272 0c-3.03125 14.9375-16.179687 25.664062-31.421875 25.632812-15.238281-.027344-28.34375-10.804688-31.320312-25.75-.425782-2.066406-.632813-4.171875-.617188-6.28125 0-17.671875 14.328125-32 32-32s32 14.328125 32 32c.015625 2.148438-.199219 4.296875-.640625 6.398438zm0 0"></path> <path d="m120 336c-13.253906 0-24 10.746094-24 24s10.746094 24 24 24 24-10.746094 24-24-10.746094-24-24-24zm0 32c-4.417969 0-8-3.582031-8-8s3.582031-8 8-8 8 3.582031 8 8-3.582031 8-8 8zm0 0"></path> <path d="m392 336c-13.253906 0-24 10.746094-24 24s10.746094 24 24 24 24-10.746094 24-24-10.746094-24-24-24zm0 32c-4.417969 0-8-3.582031-8-8s3.582031-8 8-8 8 3.582031 8 8-3.582031 8-8 8zm0 0"></path> <path d="m344 216h72c2.996094-.003906 5.738281-1.679688 7.105469-4.339844 1.371093-2.664062 1.136719-5.871094-.601563-8.308594l-40-56c-1.5-2.101562-3.921875-3.347656-6.503906-3.351562h-32c-4.417969 0-8 3.582031-8 8v56c0 4.417969 3.582031 8 8 8zm8-56h19.878906l28.578125 40h-48.457031zm0 0"></path> <path d="m88 120h-40c-4.417969 0-8 3.582031-8 8v80c0 4.417969 3.582031 8 8 8s8-3.582031 8-8v-32h24c4.417969 0 8-3.582031 8-8s-3.582031-8-8-8h-24v-24h32c4.417969 0 8-3.582031 8-8s-3.582031-8-8-8zm0 0"></path> <path d="m168 144c0-13.253906-10.746094-24-24-24h-32c-4.417969 0-8 3.582031-8 8v80c0 4.417969 3.582031 8 8 8s8-3.582031 8-8v-28.6875l34.34375 34.34375c3.140625 3.03125 8.128906 2.988281 11.214844-.097656 3.085937-3.085938 3.128906-8.074219.097656-11.214844l-34.34375-34.34375h12.6875c13.253906 0 24-10.746094 24-24zm-48-8h24c4.417969 0 8 3.582031 8 8s-3.582031 8-8 8h-24zm0 0"></path> <path d="m224 136c4.417969 0 8-3.582031 8-8s-3.582031-8-8-8h-40c-4.417969 0-8 3.582031-8 8v80c0 4.417969 3.582031 8 8 8h40c4.417969 0 8-3.582031 8-8s-3.582031-8-8-8h-32v-24h24c4.417969 0 8-3.582031 8-8s-3.582031-8-8-8h-24v-24zm0 0"></path> <path d="m288 136c4.417969 0 8-3.582031 8-8s-3.582031-8-8-8h-40c-4.417969 0-8 3.582031-8 8v80c0 4.417969 3.582031 8 8 8h40c4.417969 0 8-3.582031 8-8s-3.582031-8-8-8h-32v-24h24c4.417969 0 8-3.582031 8-8s-3.582031-8-8-8h-24v-24zm0 0"></path> <path d="m8 408c-4.417969 0-8 3.582031-8 8s3.582031 8 8 8h464c4.417969 0 8-3.582031 8-8s-3.582031-8-8-8zm0 0"></path> </g> </svg> 